<mxfile host="app.diagrams.net" modified="2024-08-13T04:36:58.196Z" agent="Mozilla/5.0 (Windows NT 10.0; Win64; x64) AppleWebKit/537.36 (KHTML, like Gecko) Chrome/127.0.0.0 Safari/537.36" version="24.5.5" etag="cJh6Q3MrN8-a1nKkMozS" type="github">
  <diagram name="Page-1" id="S3aDtRhXMhzwdSTSICj_">
    <mxGraphModel>
      <root>
        <mxCell id="0" />
        <mxCell id="1" parent="0" />
      </root>
    </mxGraphModel>
  </diagram>
</mxfile>
